<svg xmlns="http://www.w3.org/2000/svg" viewBox="0 0 153.01 153.01"><defs><style>.cls-1{fill:#af2025;}.cls-2{fill:#2a723a;}.cls-3{fill:#47499e;}.cls-4{fill:#650a34;}.cls-5{fill:#cbdb2a;}.cls-6{fill:#4990cd;}</style></defs><g id="Frame"><path class="cls-1" d="M51.11,71a31.1,31.1,0,0,1-1-4.29,26,26,0,0,1-.31-4.32,27,27,0,0,1,1.47-8.58,30.37,30.37,0,0,1,1.73-4,25.72,25.72,0,0,1,2.31-3.7,28.58,28.58,0,0,1,2.92-3.31,26.61,26.61,0,0,1,3.36-2.81,28,28,0,0,1,3.8-2.26c1.31-.63,2.64-1.2,4-1.71a41.36,41.36,0,0,0-10.74,3.28,42.22,42.22,0,0,0-17.33,14.7,41.36,41.36,0,0,0-6.38,32.2,8.25,8.25,0,0,0,.62,2.11,4.37,4.37,0,0,0,.11-1.14c0-.41.08-.82.13-1.22s.11-.78.19-1.17.2-.79.31-1.18.21-.77.34-1.14.28-.77.44-1.14.33-.72.51-1.07.39-.69.6-1,.44-.7.67-1,.47-.64.73-.95.54-.62.82-.91.56-.57.85-.84.62-.54,1-.8.64-.47,1-.69.67-.43,1-.63.73-.39,1.1-.57.72-.36,1.09-.51.77-.3,1.16-.43.77-.23,1.16-.33.8-.19,1.21-.27Z"/><path class="cls-2" d="M44.05,104.31a.92.92,0,0,0,.13.21c.53.56,1,1.12,1.59,1.67s1,1.09,1.62,1.58c1.07.92,2.16,1.81,3.26,2.7a32,32,0,0,0,4,2.65c.85.51,1.73.94,2.61,1.38a40.53,40.53,0,0,0,4.34,1.87,36.7,36.7,0,0,0,4.52,1.34c.92.21,1.84.44,2.77.62a46.13,46.13,0,0,0,6,.65,30.56,30.56,0,0,0,4.28-.06c1.29-.11,2.59-.18,3.87-.37,1.45-.22,2.89-.53,4.32-.86a35.78,35.78,0,0,0,4.85-1.5c1-.39,2-.81,3-1.28,1.23-.6,2.44-1.25,3.62-2s2.45-1.57,3.61-2.42c.91-.67,1.78-1.39,2.65-2.11.43-.35.83-.75,1.24-1.13a2.13,2.13,0,0,0,.22-.27c-.17-.13-.28,0-.39,0a17.71,17.71,0,0,1-10,1.92,17.91,17.91,0,0,1-3.63-.77,16.5,16.5,0,0,1-5.6-3.08,17.38,17.38,0,0,1-2.47-2.53c-.36-.45-.38-.45-.77,0a26.81,26.81,0,0,1-4.51,3.79,35.23,35.23,0,0,1-3.22,1.84,24.6,24.6,0,0,1-4.23,1.7,28.91,28.91,0,0,1-3.18.78c-1.21.22-2.43.39-3.65.49-1,.08-2,0-3.08,0a27.68,27.68,0,0,1-5.66-.8,29.92,29.92,0,0,1-5.45-1.93,27.5,27.5,0,0,1-4.08-2.35c-.7-.47-1.36-1-2-1.52-.14-.11-.29-.21-.44-.31Z"/><path class="cls-3" d="M88,36.79l.26.2a17.27,17.27,0,0,1,3.21,2.43,16.17,16.17,0,0,1,3.13,4,17.2,17.2,0,0,1,1.94,6.11,11.63,11.63,0,0,1,.1,2.36c0,.46,0,.93-.07,1.38a15.36,15.36,0,0,1-1,4.18l-.24.67c-.13.35-.1.42.28.52l1,.24a28.15,28.15,0,0,1,5.26,2,29.37,29.37,0,0,1,3.71,2.19A26.66,26.66,0,0,1,116.89,82a22,22,0,0,1,.18,4.29c-.08,1-.14,2.08-.23,3.11,0,.4-.12.78-.13,1.2a1.33,1.33,0,0,0,.12-.16c.32-1.12.68-2.22,1-3.35s.52-2.26.68-3.4c.22-1.46.36-2.94.48-4.41.08-.91.09-1.84.09-2.76,0-.76-.09-1.52-.1-2.28a33.7,33.7,0,0,0-.38-3.89A32.93,32.93,0,0,0,117,63.81c-.49-1.4-1-2.78-1.57-4.15a22.5,22.5,0,0,0-1.66-3.24c-.48-.78-.91-1.59-1.41-2.35s-1.12-1.64-1.71-2.43c-.37-.49-.76-1-1.17-1.42-.81-.9-1.66-1.78-2.48-2.68a29.08,29.08,0,0,0-3.17-2.91,45.09,45.09,0,0,0-3.9-2.78,45.66,45.66,0,0,0-4.24-2.3,39.42,39.42,0,0,0-4.76-2c-.85-.3-1.71-.54-2.56-.81L88,36.7Z"/><path class="cls-4" d="M63.63,52a15.15,15.15,0,0,1,0-2.52A23.47,23.47,0,0,1,64,47.07a13.57,13.57,0,0,1,.8-2.56,16.4,16.4,0,0,1,2.09-3.69,15.64,15.64,0,0,1,2.59-2.68,16.71,16.71,0,0,1,6.29-3.28,16.08,16.08,0,0,1,4.19-.61,14.34,14.34,0,0,1,3.34.32,11.73,11.73,0,0,1,3.85,1.64A12.21,12.21,0,0,1,90,38.88a11.18,11.18,0,0,1,1.79,3.33,11.62,11.62,0,0,1,.59,3.13A10.67,10.67,0,0,1,92,49a12.71,12.71,0,0,1-.9,2.28,12,12,0,0,1-1.72,2.46,12.39,12.39,0,0,1-3.13,2.45,11.42,11.42,0,0,1-4.94,1.46,14,14,0,0,1-1.83,0s-.09,0-.14.1a2,2,0,0,0,.23.07,8.19,8.19,0,0,0,2,0c1.12-.17,2.24-.37,3.35-.58a23.92,23.92,0,0,1,3.77-.43c.9,0,1.79,0,2.68,0,.26,0,.36-.13.48-.29A13.88,13.88,0,0,0,94,52.31a13.22,13.22,0,0,0,.65-3.73A14,14,0,0,0,93,41.64a12.87,12.87,0,0,0-1.68-2.5,14.56,14.56,0,0,0-9-4.93c-.63-.09-1.26-.17-1.9-.2a21.28,21.28,0,0,0-4.51.27,24.67,24.67,0,0,0-6.81,2.15,22.18,22.18,0,0,0-3.91,2.38,20.6,20.6,0,0,0-2.34,2,27.45,27.45,0,0,0-2.22,2.6,21.73,21.73,0,0,0-3,5.62,22.87,22.87,0,0,0-1,3.81,22.09,22.09,0,0,0-.37,4.6A23.1,23.1,0,0,0,56.6,61a20.86,20.86,0,0,0,1.71,5.33,23.85,23.85,0,0,0,3.08,4.79,22.77,22.77,0,0,0,3.43,3.37A13.75,13.75,0,0,1,67.2,77a16.27,16.27,0,0,1,2.53,5L66.39,64.18A56.45,56.45,0,0,1,63.86,53C63.81,52.67,63.66,52.33,63.63,52Z"/><path class="cls-5" d="M62,101l.53-.45a15.74,15.74,0,0,1-1.43.84,22.85,22.85,0,0,1-2.31.87,15,15,0,0,1-4,.73,14.79,14.79,0,0,1-3.12-.1,17.3,17.3,0,0,1-6.12-2,16.06,16.06,0,0,1-3.83-3A16.5,16.5,0,0,1,39,94.12a10.24,10.24,0,0,1-1-2.64,16.72,16.72,0,0,1-.29-2.11,9.25,9.25,0,0,1,.19-2.78,11.5,11.5,0,0,1,1.56-4,11.65,11.65,0,0,1,2.65-3A12,12,0,0,1,44.67,78a12.42,12.42,0,0,1,4.49-1.08,12.24,12.24,0,0,1,4.94.83,11.8,11.8,0,0,1,4.17,2.75,12.91,12.91,0,0,1,2.12,3,.91.91,0,0,0,.07.14l0,0c.1-.13,0-.25,0-.35A12.68,12.68,0,0,0,59,81.12c-.56-.64-1.15-1.25-1.69-1.9a26.81,26.81,0,0,1-3.07-4.34c-.17-.31-.37-.61-.52-.93a.46.46,0,0,0-.43-.29,14.79,14.79,0,0,0-3.39,0,14.42,14.42,0,0,0-11.2,8,14.46,14.46,0,0,0-1.15,3.57,13.75,13.75,0,0,0-.06,4.83,13.28,13.28,0,0,0,1.64,4.68c.52.85,1.06,1.67,1.65,2.47s1.11,1.36,1.67,2A18.2,18.2,0,0,0,46,102.48a22.6,22.6,0,0,0,6.18,3.12,24.63,24.63,0,0,0,4,1,20.39,20.39,0,0,0,2.19.25,26.41,26.41,0,0,0,5.82-.35,24.21,24.21,0,0,0,6.23-2,20.73,20.73,0,0,0,3.82-2.39,24.41,24.41,0,0,0,3.13-2.88,20.25,20.25,0,0,0,2.82-3.88,23.64,23.64,0,0,0,2.36-5.81c.22-.86.36-1.73.58-2.58a15.86,15.86,0,0,1,1-2.76,16.09,16.09,0,0,1,2.46-3.75l-13,10.92C70.17,94.9,66.84,98.28,62,101Z"/><path class="cls-6" d="M115.62,81a18,18,0,0,0-1.41-3.74c-.37-.72-.71-1.45-1.13-2.14a19.9,19.9,0,0,0-2.25-3,24.62,24.62,0,0,0-2.43-2.36,22.66,22.66,0,0,0-7.32-4.14,24.18,24.18,0,0,0-10.55-1.07,22.64,22.64,0,0,0-4.86,1.16,16.37,16.37,0,0,1-4.32,1A17.49,17.49,0,0,1,78,66.46l14.29,5c4.85,1.1,9.49,2.25,14.33,5L105.13,76a16.48,16.48,0,0,1,4,2.29A15.8,15.8,0,0,1,115,88.92a20.53,20.53,0,0,1,0,2.48,16.08,16.08,0,0,1-1.63,6.47,19.86,19.86,0,0,1-1.12,2,11.35,11.35,0,0,1-4.9,4.14A11.79,11.79,0,0,1,103,105a12.47,12.47,0,0,1-2.51-.17,12,12,0,0,1-7.72-4.82,10,10,0,0,1-1.66-3.56,12.19,12.19,0,0,1-.35-4,11.67,11.67,0,0,1,1.85-5.45c.08-.12.14-.24.21-.37l-.1-.06c-.12.18-.25.36-.36.54a14.74,14.74,0,0,0-1.49,3.49c-.25.77-.55,1.54-.87,2.29a29.75,29.75,0,0,1-1.93,3.77c-.15.25-.3.5-.46.74a.49.49,0,0,0,0,.48,11.81,11.81,0,0,0,1.44,2.42c.33.45.72.85,1.08,1.28a13.14,13.14,0,0,0,2.54,2.16,11.82,11.82,0,0,0,2.76,1.42,14.12,14.12,0,0,0,5,1,15.1,15.1,0,0,0,4.12-.55,13.89,13.89,0,0,0,4.34-2.07,13.33,13.33,0,0,0,3-2.91,19.67,19.67,0,0,0,1.87-3.07,23,23,0,0,0,1.36-3.25,26.75,26.75,0,0,0,.87-3.53,22.77,22.77,0,0,0,.33-3.3A22.54,22.54,0,0,0,115.62,81Z"/><path d="M74.22,65.67c-.28-.11-.49-.33-.76-.45-.73-.37-1.41-.66-2.16-1.09l.75.26a15.09,15.09,0,0,1-2.8-1.64,16.72,16.72,0,0,1-3.13-3.53,15,15,0,0,1-1.06-2.12l1.33,7.08c1.89,6.07,4,12.41,4,21.55a16.58,16.58,0,0,1-.13,3.07,17.08,17.08,0,0,1-.7,3,18.33,18.33,0,0,1-1.29,2.94,14.48,14.48,0,0,1-1.75,2.46l7-5.88c4.38-4.65,8.87-9.66,16.9-14.23l-1.59,1.34a13.92,13.92,0,0,1,2.18-1.71,20.45,20.45,0,0,1,3.22-1.3,15.11,15.11,0,0,1,3.65-.64c.44,0,.88,0,1.32,0a15.54,15.54,0,0,1,5.45,1.06L92.25,71.45C86.84,70.23,81.11,69,74.49,65.74Zm8,10.7a4.71,4.71,0,0,1-5.45,4.07A4.59,4.59,0,0,1,73,75.29a4.64,4.64,0,0,1,5-3.86A4.58,4.58,0,0,1,82.26,76.37Z"/></g></svg>